<?xml version="1.0" encoding="UTF-8" standalone="no"?>
<!DOCTYPE svg PUBLIC "-//W3C//DTD SVG 1.1//EN"
 "http://www.w3.org/Graphics/SVG/1.1/DTD/svg11.dtd">
<!-- Generated by graphviz version 2.40.1 (20161225.0304)
 -->
<!-- Title: Perl Pages: 1 -->
<svg width="1614pt" height="546pt"
 viewBox="0.00 0.00 1614.08 546.00" xmlns="http://www.w3.org/2000/svg" xmlns:xlink="http://www.w3.org/1999/xlink">
<g id="graph0" class="graph" transform="scale(1 1) rotate(0) translate(4 542)">
<title>Perl</title>
<polygon fill="#ffffff" stroke="transparent" points="-4,4 -4,-542 1610.0781,-542 1610.0781,4 -4,4"/>
<!-- event -->
<g id="node1" class="node">
<title>event</title>
<path fill="none" stroke="#000000" d="M73.0781,-491.5C73.0781,-491.5 261.0781,-491.5 261.0781,-491.5 267.0781,-491.5 273.0781,-497.5 273.0781,-503.5 273.0781,-503.5 273.0781,-525.5 273.0781,-525.5 273.0781,-531.5 267.0781,-537.5 261.0781,-537.5 261.0781,-537.5 73.0781,-537.5 73.0781,-537.5 67.0781,-537.5 61.0781,-531.5 61.0781,-525.5 61.0781,-525.5 61.0781,-503.5 61.0781,-503.5 61.0781,-497.5 67.0781,-491.5 73.0781,-491.5"/>
<text text-anchor="middle" x="89.0781" y="-510.8" font-family="Times,serif" font-size="14.00" fill="#000000">event</text>
<polyline fill="none" stroke="#000000" points="117.0781,-491.5 117.0781,-537.5 "/>
<text text-anchor="middle" x="127.5781" y="-510.8" font-family="Times,serif" font-size="14.00" fill="#000000"> </text>
<polyline fill="none" stroke="#000000" points="138.0781,-491.5 138.0781,-537.5 "/>
<text text-anchor="middle" x="195.0781" y="-522.3" font-family="Times,serif" font-size="14.00" fill="#000000">disposition</text>
<polyline fill="none" stroke="#000000" points="138.0781,-514.5 252.0781,-514.5 "/>
<text text-anchor="middle" x="195.0781" y="-499.3" font-family="Times,serif" font-size="14.00" fill="#000000">updated_date</text>
<polyline fill="none" stroke="#000000" points="252.0781,-491.5 252.0781,-537.5 "/>
<text text-anchor="middle" x="262.5781" y="-510.8" font-family="Times,serif" font-size="14.00" fill="#000000"> </text>
</g>
<!-- event&#45;&gt;event -->
<g id="edge7" class="edge">
<title>event&#45;&gt;event</title>
<path fill="none" stroke="#000000" d="M273.3509,-521.8982C284.1707,-520.4348 291.0781,-517.9688 291.0781,-514.5 291.0781,-512.2778 288.2433,-510.4672 283.3611,-509.068"/>
<polygon fill="#000000" stroke="#000000" points="283.838,-505.5949 273.3509,-507.1018 282.4888,-512.4636 283.838,-505.5949"/>
<text text-anchor="middle" x="307.0781" y="-510.8" font-family="Times,serif" font-size="14.00" fill="#000000">next</text>
</g>
<!-- submission -->
<g id="node2" class="node">
<title>submission</title>
<path fill="none" stroke="#000000" d="M316.0781,-88.5C316.0781,-88.5 540.0781,-88.5 540.0781,-88.5 546.0781,-88.5 552.0781,-94.5 552.0781,-100.5 552.0781,-100.5 552.0781,-214.5 552.0781,-214.5 552.0781,-220.5 546.0781,-226.5 540.0781,-226.5 540.0781,-226.5 316.0781,-226.5 316.0781,-226.5 310.0781,-226.5 304.0781,-220.5 304.0781,-214.5 304.0781,-214.5 304.0781,-100.5 304.0781,-100.5 304.0781,-94.5 310.0781,-88.5 316.0781,-88.5"/>
<text text-anchor="middle" x="352.5781" y="-153.8" font-family="Times,serif" font-size="14.00" fill="#000000">submission</text>
<polyline fill="none" stroke="#000000" points="401.0781,-88.5 401.0781,-226.5 "/>
<text text-anchor="middle" x="411.5781" y="-153.8" font-family="Times,serif" font-size="14.00" fill="#000000"> </text>
<polyline fill="none" stroke="#000000" points="422.0781,-88.5 422.0781,-226.5 "/>
<text text-anchor="middle" x="476.5781" y="-211.3" font-family="Times,serif" font-size="14.00" fill="#000000">disposition</text>
<polyline fill="none" stroke="#000000" points="422.0781,-203.5 531.0781,-203.5 "/>
<text text-anchor="middle" x="476.5781" y="-188.3" font-family="Times,serif" font-size="14.00" fill="#000000">review_issue</text>
<polyline fill="none" stroke="#000000" points="422.0781,-180.5 531.0781,-180.5 "/>
<text text-anchor="middle" x="476.5781" y="-165.3" font-family="Times,serif" font-size="14.00" fill="#000000">prerev_issue</text>
<polyline fill="none" stroke="#000000" points="422.0781,-157.5 531.0781,-157.5 "/>
<text text-anchor="middle" x="476.5781" y="-142.3" font-family="Times,serif" font-size="14.00" fill="#000000">joss_doi</text>
<polyline fill="none" stroke="#000000" points="422.0781,-134.5 531.0781,-134.5 "/>
<text text-anchor="middle" x="476.5781" y="-119.3" font-family="Times,serif" font-size="14.00" fill="#000000">repository</text>
<polyline fill="none" stroke="#000000" points="422.0781,-111.5 531.0781,-111.5 "/>
<text text-anchor="middle" x="476.5781" y="-96.3" font-family="Times,serif" font-size="14.00" fill="#000000">title</text>
<polyline fill="none" stroke="#000000" points="531.0781,-88.5 531.0781,-226.5 "/>
<text text-anchor="middle" x="541.5781" y="-153.8" font-family="Times,serif" font-size="14.00" fill="#000000"> </text>
</g>
<!-- event&#45;&gt;submission -->
<g id="edge15" class="edge">
<title>event&#45;&gt;submission</title>
<path fill="none" stroke="#000000" d="M92.5935,-491.4887C68.3239,-480.0591 44.0516,-463.5048 30.0781,-440 -6.715,-378.1108 -12.8277,-335.8195 30.0781,-278 62.0915,-234.8589 191.392,-201.1532 294.0456,-180.4924"/>
<polygon fill="#000000" stroke="#000000" points="294.7674,-183.9175 303.8925,-178.5338 293.4018,-177.0519 294.7674,-183.9175"/>
<text text-anchor="middle" x="73.5781" y="-355.3" font-family="Times,serif" font-size="14.00" fill="#000000">occurred_to</text>
</g>
<!-- person -->
<g id="node4" class="node">
<title>person</title>
<path fill="none" stroke="#000000" d="M561.0781,-301.5C561.0781,-301.5 735.0781,-301.5 735.0781,-301.5 741.0781,-301.5 747.0781,-307.5 747.0781,-313.5 747.0781,-313.5 747.0781,-404.5 747.0781,-404.5 747.0781,-410.5 741.0781,-416.5 735.0781,-416.5 735.0781,-416.5 561.0781,-416.5 561.0781,-416.5 555.0781,-416.5 549.0781,-410.5 549.0781,-404.5 549.0781,-404.5 549.0781,-313.5 549.0781,-313.5 549.0781,-307.5 555.0781,-301.5 561.0781,-301.5"/>
<text text-anchor="middle" x="581.5781" y="-355.3" font-family="Times,serif" font-size="14.00" fill="#000000">person</text>
<polyline fill="none" stroke="#000000" points="614.0781,-301.5 614.0781,-416.5 "/>
<text text-anchor="middle" x="624.5781" y="-355.3" font-family="Times,serif" font-size="14.00" fill="#000000"> </text>
<polyline fill="none" stroke="#000000" points="635.0781,-301.5 635.0781,-416.5 "/>
<text text-anchor="middle" x="680.5781" y="-401.3" font-family="Times,serif" font-size="14.00" fill="#000000">affiliation</text>
<polyline fill="none" stroke="#000000" points="635.0781,-393.5 726.0781,-393.5 "/>
<text text-anchor="middle" x="680.5781" y="-378.3" font-family="Times,serif" font-size="14.00" fill="#000000">real_name</text>
<polyline fill="none" stroke="#000000" points="635.0781,-370.5 726.0781,-370.5 "/>
<text text-anchor="middle" x="680.5781" y="-355.3" font-family="Times,serif" font-size="14.00" fill="#000000">handle</text>
<polyline fill="none" stroke="#000000" points="635.0781,-347.5 726.0781,-347.5 "/>
<text text-anchor="middle" x="680.5781" y="-332.3" font-family="Times,serif" font-size="14.00" fill="#000000">orcid</text>
<polyline fill="none" stroke="#000000" points="635.0781,-324.5 726.0781,-324.5 "/>
<text text-anchor="middle" x="680.5781" y="-309.3" font-family="Times,serif" font-size="14.00" fill="#000000">email</text>
<polyline fill="none" stroke="#000000" points="726.0781,-301.5 726.0781,-416.5 "/>
<text text-anchor="middle" x="736.5781" y="-355.3" font-family="Times,serif" font-size="14.00" fill="#000000"> </text>
</g>
<!-- event&#45;&gt;person -->
<g id="edge16" class="edge">
<title>event&#45;&gt;person</title>
<path fill="none" stroke="#000000" d="M273.4106,-495.6427C335.5388,-483.0984 414.8908,-464.4231 483.0781,-440 501.7959,-433.2957 521.1762,-425.0569 539.7877,-416.4277"/>
<polygon fill="#000000" stroke="#000000" points="541.2949,-419.5866 548.8562,-412.1651 538.3172,-413.2515 541.2949,-419.5866"/>
<text text-anchor="middle" x="465.0781" y="-461.8" font-family="Times,serif" font-size="14.00" fill="#000000">updated_by</text>
</g>
<!-- language -->
<g id="node5" class="node">
<title>language</title>
<path fill="none" stroke="#000000" d="M1136.0781,-.5C1136.0781,-.5 1292.0781,-.5 1292.0781,-.5 1298.0781,-.5 1304.0781,-6.5 1304.0781,-12.5 1304.0781,-12.5 1304.0781,-24.5 1304.0781,-24.5 1304.0781,-30.5 1298.0781,-36.5 1292.0781,-36.5 1292.0781,-36.5 1136.0781,-36.5 1136.0781,-36.5 1130.0781,-36.5 1124.0781,-30.5 1124.0781,-24.5 1124.0781,-24.5 1124.0781,-12.5 1124.0781,-12.5 1124.0781,-6.5 1130.0781,-.5 1136.0781,-.5"/>
<text text-anchor="middle" x="1165.0781" y="-14.8" font-family="Times,serif" font-size="14.00" fill="#000000">language</text>
<polyline fill="none" stroke="#000000" points="1206.0781,-.5 1206.0781,-36.5 "/>
<text text-anchor="middle" x="1216.5781" y="-14.8" font-family="Times,serif" font-size="14.00" fill="#000000"> </text>
<polyline fill="none" stroke="#000000" points="1227.0781,-.5 1227.0781,-36.5 "/>
<text text-anchor="middle" x="1255.0781" y="-14.8" font-family="Times,serif" font-size="14.00" fill="#000000">name</text>
<polyline fill="none" stroke="#000000" points="1283.0781,-.5 1283.0781,-36.5 "/>
<text text-anchor="middle" x="1293.5781" y="-14.8" font-family="Times,serif" font-size="14.00" fill="#000000"> </text>
</g>
<!-- submission&#45;&gt;language -->
<g id="edge5" class="edge">
<title>submission&#45;&gt;language</title>
<path fill="none" stroke="#000000" d="M552.194,-125.8653C605.2261,-113.0229 667.9568,-98.7208 725.0781,-88 858.9077,-62.8823 1014.8613,-42.184 1113.9983,-30.087"/>
<polygon fill="#000000" stroke="#000000" points="1114.5032,-33.5515 1124.0082,-28.8712 1113.6591,-26.6025 1114.5032,-33.5515"/>
<text text-anchor="middle" x="978.0781" y="-58.8" font-family="Times,serif" font-size="14.00" fill="#000000">uses_language</text>
</g>
<!-- topic -->
<g id="node8" class="node">
<title>topic</title>
<path fill="none" stroke="#000000" d="M389.5781,-.5C389.5781,-.5 516.5781,-.5 516.5781,-.5 522.5781,-.5 528.5781,-6.5 528.5781,-12.5 528.5781,-12.5 528.5781,-24.5 528.5781,-24.5 528.5781,-30.5 522.5781,-36.5 516.5781,-36.5 516.5781,-36.5 389.5781,-36.5 389.5781,-36.5 383.5781,-36.5 377.5781,-30.5 377.5781,-24.5 377.5781,-24.5 377.5781,-12.5 377.5781,-12.5 377.5781,-6.5 383.5781,-.5 389.5781,-.5"/>
<text text-anchor="middle" x="404.0781" y="-14.8" font-family="Times,serif" font-size="14.00" fill="#000000">topic</text>
<polyline fill="none" stroke="#000000" points="430.5781,-.5 430.5781,-36.5 "/>
<text text-anchor="middle" x="441.0781" y="-14.8" font-family="Times,serif" font-size="14.00" fill="#000000"> </text>
<polyline fill="none" stroke="#000000" points="451.5781,-.5 451.5781,-36.5 "/>
<text text-anchor="middle" x="479.5781" y="-14.8" font-family="Times,serif" font-size="14.00" fill="#000000">name</text>
<polyline fill="none" stroke="#000000" points="507.5781,-.5 507.5781,-36.5 "/>
<text text-anchor="middle" x="518.0781" y="-14.8" font-family="Times,serif" font-size="14.00" fill="#000000"> </text>
</g>
<!-- submission&#45;&gt;topic -->
<g id="edge4" class="edge">
<title>submission&#45;&gt;topic</title>
<path fill="none" stroke="#000000" d="M440.5048,-88.4072C443.1777,-73.5463 445.855,-58.6606 448.0479,-46.468"/>
<polygon fill="#000000" stroke="#000000" points="451.5125,-46.9765 449.838,-36.5149 444.623,-45.7374 451.5125,-46.9765"/>
<text text-anchor="middle" x="521.0781" y="-58.8" font-family="Times,serif" font-size="14.00" fill="#000000">has_secondary_topic</text>
</g>
<!-- submission&#45;&gt;topic -->
<g id="edge17" class="edge">
<title>submission&#45;&gt;topic</title>
<path fill="none" stroke="#000000" d="M304.0328,-88.9398C298.0259,-78.2632 297.8442,-66.8266 307.0781,-55 315.3123,-44.4538 340.3277,-36.5038 367.3785,-30.7608"/>
<polygon fill="#000000" stroke="#000000" points="368.2954,-34.1466 377.4093,-28.7441 366.9156,-27.2839 368.2954,-34.1466"/>
<text text-anchor="middle" x="373.5781" y="-58.8" font-family="Times,serif" font-size="14.00" fill="#000000">has_primary_topic</text>
</g>
<!-- assignment -->
<g id="node3" class="node">
<title>assignment</title>
<path fill="none" stroke="#000000" d="M454.5781,-491.5C454.5781,-491.5 619.5781,-491.5 619.5781,-491.5 625.5781,-491.5 631.5781,-497.5 631.5781,-503.5 631.5781,-503.5 631.5781,-525.5 631.5781,-525.5 631.5781,-531.5 625.5781,-537.5 619.5781,-537.5 619.5781,-537.5 454.5781,-537.5 454.5781,-537.5 448.5781,-537.5 442.5781,-531.5 442.5781,-525.5 442.5781,-525.5 442.5781,-503.5 442.5781,-503.5 442.5781,-497.5 448.5781,-491.5 454.5781,-491.5"/>
<text text-anchor="middle" x="492.0781" y="-510.8" font-family="Times,serif" font-size="14.00" fill="#000000">assignment</text>
<polyline fill="none" stroke="#000000" points="541.5781,-491.5 541.5781,-537.5 "/>
<text text-anchor="middle" x="552.0781" y="-510.8" font-family="Times,serif" font-size="14.00" fill="#000000"> </text>
<polyline fill="none" stroke="#000000" points="562.5781,-491.5 562.5781,-537.5 "/>
<text text-anchor="middle" x="586.5781" y="-522.3" font-family="Times,serif" font-size="14.00" fill="#000000">date</text>
<polyline fill="none" stroke="#000000" points="562.5781,-514.5 610.5781,-514.5 "/>
<text text-anchor="middle" x="586.5781" y="-499.3" font-family="Times,serif" font-size="14.00" fill="#000000">role</text>
<polyline fill="none" stroke="#000000" points="610.5781,-491.5 610.5781,-537.5 "/>
<text text-anchor="middle" x="621.0781" y="-510.8" font-family="Times,serif" font-size="14.00" fill="#000000"> </text>
</g>
<!-- assignment&#45;&gt;submission -->
<g id="edge3" class="edge">
<title>assignment&#45;&gt;submission</title>
<path fill="none" stroke="#000000" d="M500.1483,-491.354C482.2342,-478.3329 461.8748,-460.5647 449.0781,-440 402.0861,-364.4827 392.2083,-333.1488 404.0781,-245 404.44,-242.312 404.8619,-239.5897 405.3339,-236.8499"/>
<polygon fill="#000000" stroke="#000000" points="408.7992,-237.3633 407.2453,-226.8831 401.9244,-236.0449 408.7992,-237.3633"/>
<text text-anchor="middle" x="494.5781" y="-355.3" font-family="Times,serif" font-size="14.00" fill="#000000">assigned_for</text>
</g>
<!-- assignment&#45;&gt;person -->
<g id="edge8" class="edge">
<title>assignment&#45;&gt;person</title>
<path fill="none" stroke="#000000" d="M605.2908,-491.3183C613.181,-486.3012 620.415,-480.2584 626.0781,-473 636.3462,-459.8394 642.2732,-443.264 645.5933,-426.8602"/>
<polygon fill="#000000" stroke="#000000" points="649.0949,-427.1491 647.3391,-416.7008 642.196,-425.9635 649.0949,-427.1491"/>
<text text-anchor="middle" x="676.5781" y="-461.8" font-family="Times,serif" font-size="14.00" fill="#000000">assigned_to</text>
</g>
<!-- assignment&#45;&gt;person -->
<g id="edge13" class="edge">
<title>assignment&#45;&gt;person</title>
<path fill="none" stroke="#000000" d="M531.0848,-491.3149C529.5204,-480.7234 529.3911,-468.278 534.0781,-458 539.6793,-445.7172 547.6406,-434.3698 556.7855,-424.0784"/>
<polygon fill="#000000" stroke="#000000" points="559.349,-426.4615 563.6369,-416.7731 554.2431,-421.6729 559.349,-426.4615"/>
<text text-anchor="middle" x="578.0781" y="-461.8" font-family="Times,serif" font-size="14.00" fill="#000000">assigned_by</text>
</g>
<!-- person&#45;&gt;submission -->
<g id="edge6" class="edge">
<title>person&#45;&gt;submission</title>
<path fill="none" stroke="#000000" d="M548.6662,-306.3526C527.3599,-296.162 504.7356,-286.1372 483.0781,-278 454.2145,-267.1553 434.8404,-284.4682 416.0781,-260 410.7496,-253.051 407.8931,-245.0193 406.7589,-236.5716"/>
<polygon fill="#000000" stroke="#000000" points="410.2482,-236.2836 406.1738,-226.5036 403.26,-236.6899 410.2482,-236.2836"/>
<text text-anchor="middle" x="458.5781" y="-248.8" font-family="Times,serif" font-size="14.00" fill="#000000">reviewer_of</text>
</g>
<!-- person&#45;&gt;submission -->
<g id="edge9" class="edge">
<title>person&#45;&gt;submission</title>
<path fill="none" stroke="#000000" d="M572.2001,-301.2763C555.9525,-288.1339 539.151,-273.9281 524.0781,-260 515.1765,-251.7745 506.1121,-242.8785 497.2837,-233.8826"/>
<polygon fill="#000000" stroke="#000000" points="499.7413,-231.3894 490.2618,-226.6575 494.7215,-236.2681 499.7413,-231.3894"/>
<text text-anchor="middle" x="556.0781" y="-248.8" font-family="Times,serif" font-size="14.00" fill="#000000">editor_of</text>
</g>
<!-- person&#45;&gt;submission -->
<g id="edge12" class="edge">
<title>person&#45;&gt;submission</title>
<path fill="none" stroke="#000000" d="M625.8681,-301.3532C616.3532,-281.8226 603.7662,-260.9405 588.0781,-245 579.7502,-236.5381 570.4288,-228.6777 560.5838,-221.4242"/>
<polygon fill="#000000" stroke="#000000" points="562.3816,-218.4082 552.2012,-215.4741 558.3299,-224.1164 562.3816,-218.4082"/>
<text text-anchor="middle" x="633.5781" y="-248.8" font-family="Times,serif" font-size="14.00" fill="#000000">author_of</text>
</g>
<!-- person&#45;&gt;submission -->
<g id="edge18" class="edge">
<title>person&#45;&gt;submission</title>
<path fill="none" stroke="#000000" d="M677.0891,-301.4367C682.6234,-282.1336 683.6018,-261.3748 672.0781,-245 657.8737,-224.8161 611.0471,-205.8649 562.161,-190.7954"/>
<polygon fill="#000000" stroke="#000000" points="562.9504,-187.3777 552.3654,-187.8341 560.9247,-194.0782 562.9504,-187.3777"/>
<text text-anchor="middle" x="699.5781" y="-248.8" font-family="Times,serif" font-size="14.00" fill="#000000">eic_of</text>
</g>
<!-- person&#45;&gt;language -->
<g id="edge1" class="edge">
<title>person&#45;&gt;language</title>
<path fill="none" stroke="#000000" d="M747.1027,-348.0945C886.2839,-330.6325 1129.2747,-291.6294 1187.0781,-227 1231.9243,-176.8579 1226.192,-90.8468 1219.4636,-46.6025"/>
<polygon fill="#000000" stroke="#000000" points="1222.8871,-45.8511 1217.8068,-36.5537 1215.9803,-46.9899 1222.8871,-45.8511"/>
<text text-anchor="middle" x="1310.0781" y="-153.8" font-family="Times,serif" font-size="14.00" fill="#000000">has_preferred_language</text>
</g>
<!-- person&#45;&gt;language -->
<g id="edge14" class="edge">
<title>person&#45;&gt;language</title>
<path fill="none" stroke="#000000" d="M747.1167,-356.7829C932.0475,-350.3278 1318.6493,-325.1354 1401.0781,-227 1440.8117,-179.6953 1436.3408,-138.7251 1401.0781,-88 1388.3502,-69.6911 1341.1179,-52.2177 1297.3109,-39.3711"/>
<polygon fill="#000000" stroke="#000000" points="1298.0243,-35.9345 1287.4466,-36.5374 1296.0915,-42.6624 1298.0243,-35.9345"/>
<text text-anchor="middle" x="1517.5781" y="-153.8" font-family="Times,serif" font-size="14.00" fill="#000000">has_additional_language</text>
</g>
<!-- rev_snapshot -->
<g id="node7" class="node">
<title>rev_snapshot</title>
<path fill="none" stroke="#000000" d="M922.0781,-100C922.0781,-100 1166.0781,-100 1166.0781,-100 1172.0781,-100 1178.0781,-106 1178.0781,-112 1178.0781,-112 1178.0781,-203 1178.0781,-203 1178.0781,-209 1172.0781,-215 1166.0781,-215 1166.0781,-215 922.0781,-215 922.0781,-215 916.0781,-215 910.0781,-209 910.0781,-203 910.0781,-203 910.0781,-112 910.0781,-112 910.0781,-106 916.0781,-100 922.0781,-100"/>
<text text-anchor="middle" x="966.0781" y="-153.8" font-family="Times,serif" font-size="14.00" fill="#000000">rev_snapshot</text>
<polyline fill="none" stroke="#000000" points="1022.0781,-100 1022.0781,-215 "/>
<text text-anchor="middle" x="1032.5781" y="-153.8" font-family="Times,serif" font-size="14.00" fill="#000000"> </text>
<polyline fill="none" stroke="#000000" points="1043.0781,-100 1043.0781,-215 "/>
<text text-anchor="middle" x="1100.0781" y="-199.8" font-family="Times,serif" font-size="14.00" fill="#000000">updated_date</text>
<polyline fill="none" stroke="#000000" points="1043.0781,-192 1157.0781,-192 "/>
<text text-anchor="middle" x="1100.0781" y="-176.8" font-family="Times,serif" font-size="14.00" fill="#000000">all_time</text>
<polyline fill="none" stroke="#000000" points="1043.0781,-169 1157.0781,-169 "/>
<text text-anchor="middle" x="1100.0781" y="-153.8" font-family="Times,serif" font-size="14.00" fill="#000000">active</text>
<polyline fill="none" stroke="#000000" points="1043.0781,-146 1157.0781,-146 "/>
<text text-anchor="middle" x="1100.0781" y="-130.8" font-family="Times,serif" font-size="14.00" fill="#000000">last_quarter</text>
<polyline fill="none" stroke="#000000" points="1043.0781,-123 1157.0781,-123 "/>
<text text-anchor="middle" x="1100.0781" y="-107.8" font-family="Times,serif" font-size="14.00" fill="#000000">last_year</text>
<polyline fill="none" stroke="#000000" points="1157.0781,-100 1157.0781,-215 "/>
<text text-anchor="middle" x="1167.5781" y="-153.8" font-family="Times,serif" font-size="14.00" fill="#000000"> </text>
</g>
<!-- person&#45;&gt;rev_snapshot -->
<g id="edge11" class="edge">
<title>person&#45;&gt;rev_snapshot</title>
<path fill="none" stroke="#000000" d="M747.2392,-308.543C800.1915,-281.5988 865.8287,-248.2001 921.9065,-219.6656"/>
<polygon fill="#000000" stroke="#000000" points="923.4959,-222.7839 930.8212,-215.1295 920.3213,-216.5452 923.4959,-222.7839"/>
<text text-anchor="middle" x="917.5781" y="-248.8" font-family="Times,serif" font-size="14.00" fill="#000000">has_snapshot</text>
</g>
<!-- person&#45;&gt;topic -->
<g id="edge2" class="edge">
<title>person&#45;&gt;topic</title>
<path fill="none" stroke="#000000" d="M702.2543,-301.3603C711.4608,-288.5924 719.7543,-274.5141 725.0781,-260 740.7777,-217.1982 763.1596,-89.2574 733.0781,-55 720.2893,-40.4359 616.442,-29.9364 538.9237,-24.0379"/>
<polygon fill="#000000" stroke="#000000" points="538.8851,-20.5253 528.6523,-23.2712 538.364,-27.5059 538.8851,-20.5253"/>
<text text-anchor="middle" x="819.5781" y="-153.8" font-family="Times,serif" font-size="14.00" fill="#000000">has_preferred_topic</text>
</g>
<!-- paper -->
<g id="node6" class="node">
<title>paper</title>
<path fill="none" stroke="#000000" d="M138.5781,-278.5C138.5781,-278.5 339.5781,-278.5 339.5781,-278.5 345.5781,-278.5 351.5781,-284.5 351.5781,-290.5 351.5781,-290.5 351.5781,-427.5 351.5781,-427.5 351.5781,-433.5 345.5781,-439.5 339.5781,-439.5 339.5781,-439.5 138.5781,-439.5 138.5781,-439.5 132.5781,-439.5 126.5781,-433.5 126.5781,-427.5 126.5781,-427.5 126.5781,-290.5 126.5781,-290.5 126.5781,-284.5 132.5781,-278.5 138.5781,-278.5"/>
<text text-anchor="middle" x="155.5781" y="-355.3" font-family="Times,serif" font-size="14.00" fill="#000000">paper</text>
<polyline fill="none" stroke="#000000" points="184.5781,-278.5 184.5781,-439.5 "/>
<text text-anchor="middle" x="195.0781" y="-355.3" font-family="Times,serif" font-size="14.00" fill="#000000"> </text>
<polyline fill="none" stroke="#000000" points="205.5781,-278.5 205.5781,-439.5 "/>
<text text-anchor="middle" x="268.0781" y="-424.3" font-family="Times,serif" font-size="14.00" fill="#000000">url</text>
<polyline fill="none" stroke="#000000" points="205.5781,-416.5 330.5781,-416.5 "/>
<text text-anchor="middle" x="268.0781" y="-401.3" font-family="Times,serif" font-size="14.00" fill="#000000">joss_doi</text>
<polyline fill="none" stroke="#000000" points="205.5781,-393.5 330.5781,-393.5 "/>
<text text-anchor="middle" x="268.0781" y="-378.3" font-family="Times,serif" font-size="14.00" fill="#000000">archive_doi</text>
<polyline fill="none" stroke="#000000" points="205.5781,-370.5 330.5781,-370.5 "/>
<text text-anchor="middle" x="268.0781" y="-355.3" font-family="Times,serif" font-size="14.00" fill="#000000">volume</text>
<polyline fill="none" stroke="#000000" points="205.5781,-347.5 330.5781,-347.5 "/>
<text text-anchor="middle" x="268.0781" y="-332.3" font-family="Times,serif" font-size="14.00" fill="#000000">title</text>
<polyline fill="none" stroke="#000000" points="205.5781,-324.5 330.5781,-324.5 "/>
<text text-anchor="middle" x="268.0781" y="-309.3" font-family="Times,serif" font-size="14.00" fill="#000000">published_date</text>
<polyline fill="none" stroke="#000000" points="205.5781,-301.5 330.5781,-301.5 "/>
<text text-anchor="middle" x="268.0781" y="-286.3" font-family="Times,serif" font-size="14.00" fill="#000000">issue</text>
<polyline fill="none" stroke="#000000" points="330.5781,-278.5 330.5781,-439.5 "/>
<text text-anchor="middle" x="341.0781" y="-355.3" font-family="Times,serif" font-size="14.00" fill="#000000"> </text>
</g>
<!-- paper&#45;&gt;submission -->
<g id="edge10" class="edge">
<title>paper&#45;&gt;submission</title>
<path fill="none" stroke="#000000" d="M233.43,-278.213C235.5278,-266.38 239.4392,-254.8728 246.0781,-245 258.4627,-226.5826 275.8515,-211.9233 295.0122,-200.2896"/>
<polygon fill="#000000" stroke="#000000" points="297.0097,-203.1782 303.9288,-195.1547 293.5164,-197.1122 297.0097,-203.1782"/>
<text text-anchor="middle" x="307.0781" y="-248.8" font-family="Times,serif" font-size="14.00" fill="#000000">from_submission</text>
</g>
</g>
</svg>
